<svg width="201" height="78" viewBox="0 0 201 78" fill="none" xmlns="http://www.w3.org/2000/svg">
<path d="M83.016 47.6H88.2V70H83.016V47.6ZM72.84 70H67.656V47.6H72.84V70ZM83.4 60.816H72.456V56.432H83.4V60.816ZM94.3958 70L104.38 47.6H109.5L119.516 70H114.076L105.884 50.224H107.932L99.7078 70H94.3958ZM99.3878 65.2L100.764 61.264H112.284L113.692 65.2H99.3878ZM131.181 70L121.517 47.6H127.117L135.565 67.44H132.269L140.845 47.6H145.997L136.301 70H131.181ZM156.475 56.624H167.259V60.656H156.475V56.624ZM156.859 65.84H169.051V70H151.707V47.6H168.635V51.76H156.859V65.84ZM177.016 70V47.6H181.304L194.52 63.728H192.44V47.6H197.56V70H193.304L180.056 53.872H182.136V70H177.016Z" fill="#3A5549"/>
<path d="M45 70.5V39L84 8.5L124.5 39" stroke="#523E11" stroke-width="10"/>
<path d="M5 70.5V39L44 7L62 23" stroke="#523E11" stroke-width="10"/>
</svg>
